<?xml version="1.0" encoding="utf-8"?>
<!-- Generator: Adobe Illustrator 27.2.0, SVG Export Plug-In . SVG Version: 6.00 Build 0)  -->
<svg version="1.1" id="Capa_1" xmlns="http://www.w3.org/2000/svg" xmlns:xlink="http://www.w3.org/1999/xlink" x="0px" y="0px"
	 viewBox="0 0 952.9 314.5" style="enable-background:new 0 0 952.9 314.5;" xml:space="preserve">
<style type="text/css">
	.st0{clip-path:url(#SVGID_00000182495204669894278890000010823454568455454869_);fill:#C2D500;}
</style>
<g>
	<defs>
		<rect id="SVGID_1_" y="1.6" width="952.9" height="312.9"/>
	</defs>
	<clipPath id="SVGID_00000001641165348781934850000010645245872288249751_">
		<use xlink:href="#SVGID_1_"  style="overflow:visible;"/>
	</clipPath>
	<path style="clip-path:url(#SVGID_00000001641165348781934850000010645245872288249751_);fill:#C2D500;" d="M1038.8,22.1l-6.8-1.8
		c-21.7-5.9-43-12.1-64.4-18.7l8.9-4.2c-8.8,20-18.5,39.7-29.8,58.5c-11.4,18.7-24.4,36.6-39.2,52.8c-14.8,16.3-31.5,30.8-49.8,43
		c-18.3,12.1-38.2,21.8-58.9,28.8c-20.7,7.1-42.2,11.5-63.7,14.1c-21.6,2.6-43.3,3.4-64.9,3.1c-43.3-0.6-86.2-5.2-129.2-9.4l0.1-0.8
		c23.8,3.6,47.5,8.2,71.1,12.7c23.6,4.5,47.2,9.2,71,13c23.7,3.8,47.6,6.8,71.5,8c23.9,1.3,47.9,0.9,71.6-2.6
		c23.6-3.4,46.8-9.8,68.5-19.6c2.7-1.2,5.4-2.4,8.1-3.7l7.9-4.2c2.6-1.4,5.3-2.7,7.8-4.3l7.5-4.8l3.8-2.4c1.3-0.8,2.5-1.5,3.7-2.5
		l7.2-5.3l3.6-2.7c1.2-0.9,2.5-1.7,3.6-2.7l6.8-5.8c18.1-15.5,34.3-33.3,48.8-52.3l10.4-14.6c0.9-1.2,1.8-2.4,2.6-3.7l2.4-3.8
		l4.9-7.6l4.9-7.6c1.6-2.5,3-5.2,4.5-7.8c3-5.2,6-10.4,9-15.6l0,0.1L1038.8,22.1z M1036.9,8l1.1,7.2l4.8,32.6l0,0.1l0,0.1
		c-2.7,5.4-5.4,10.8-8.2,16.1c-1.4,2.7-2.7,5.4-4.2,8l-4.5,7.8l-4.5,7.8l-2.3,3.9c-0.8,1.3-1.6,2.5-2.5,3.8l-10.1,15.1
		c-14.1,19.6-30.1,38.1-48.4,54.1c-18.2,16-38.9,29.5-61.1,39.4c-22.2,9.9-45.9,16.4-70,19.8c-24.1,3.5-48.4,3.8-72.5,2.3
		c-24.2-1.5-48.1-4.9-71.9-9C635,208.8,588.3,197,541,188.3l0.1-0.8c43,3,86.1,6.6,129.1,6c21.5-0.3,43-1.7,64.1-4.8
		c21.2-3.1,42.1-8,62-15.5c19.9-7.4,38.9-17.2,56.2-29.3c17.3-12.1,33-26.6,46.8-42.6c13.8-16,25.8-33.6,36.4-51.9
		c10.4-18.5,19.3-37.8,27.4-57.5l2.6-6l6.3,1.9C993.7-5.9,1015.4,1,1036.9,8"/>
	<path style="clip-path:url(#SVGID_00000001641165348781934850000010645245872288249751_);fill:#C2D500;" d="M216.3,162.6
		C133.7,133.9,51.2,95.1-35.2,85.3l7.1,50.8c287-17.4,540.7,289.3,932.3-1C642.2,311,421.5,245.1,216.3,162.6"/>
	<path style="clip-path:url(#SVGID_00000001641165348781934850000010645245872288249751_);fill:#C2D500;" d="M-27,377.8l46.8-6.5
		C210.2,132.7,377,165.5,531,187.2C364.3,152.2,202.7,127.4-27,377.8"/>
</g>
</svg>
