<?xml version="1.0" encoding="UTF-8"?><svg id="Capa_1" xmlns="http://www.w3.org/2000/svg" width="300" height="130" viewBox="0 0 741 319.72"><defs><style>.cls-1{fill:#c2d500;}</style></defs><path class="cls-1" d="m716.83,168.64c1.8-.64,2.91-2.08,2.91-4.09,0-2.76-1.91-4.35-5.09-4.35h-5.51c-.32,0-.53.11-.53.48v13.75c0,.32.21.48.53.48h1.65c.26,0,.47-.16.47-.48v-5.15c0-.21.05-.27.27-.27h2.65l2.76,5.42c.16.32.37.48.64.48h1.95c.27,0,.38-.21.27-.48l-2.97-5.78Zm-2.18-2.02h-3.12c-.21,0-.27-.11-.27-.27v-3.56c0-.21.05-.26.27-.26h3.12c1.65,0,2.44.69,2.44,2.02s-.79,2.07-2.44,2.07"/><path class="cls-1" d="m741,13.14c-.26-2.39-1.64-4.35-4.07-6-.27-.17-.56-.33-.84-.5-1.79-1.99-3.88-3.49-6.26-4.5-2.92-1.22-5.78-1.96-8.7-2.06-2.86-.21-5.56,0-8,.58-2.44.64-4.3,1.44-5.51,2.4-1.33,1.01-2.65,2.5-3.87,4.46-1.27,1.91-3.24,4.51-5.89,7.65-2.59,3.19-6.3,7.06-11.03,11.69-4.72,4.62-11.24,10.09-19.51,16.41-6.16,4.73-11.03,7.97-14.58,9.71-3.56,1.76-6.31,2.82-8.33,3.19-2.01.37-3.56.48-4.66.37-1.06-.16-2.23.21-3.45,1.17-1.28.96-1.96,3.08-2.17,6.43-.17,3.34.47,6.9,1.96,10.57,1.43,3.66,3.87,6.84,7.31,9.56,3.4,2.7,8.01,3.98,13.9,3.77,2.54-.21,5.3-1.06,8.32-2.7,3.02-1.59,6.2-3.67,9.44-6.26,2.26-1.79,4.46-3.71,6.65-5.74-1.3,3.29-2.61,6.61-3.95,9.99-3.5,9.03-25.34,70.95-27.46,77.85-2.18,6.86-3.87,12.74-5.04,17.63-1.22,4.94-1.65,8.45-1.43,10.52.43,3.24,1.38,6.21,3.03,9.03,1.59,2.82,3.66,5.2,6.2,7.28,2.49,2.02,5.35,3.45,8.38,4.51,11.77,4.2,12.14-10.3,13.1-15.08,1.11-5.26,2.91-12.38,5.56-21.35,2.6-9.02,22.85-68.34,30.91-88.58,8-20.23,18.02-44.18,30-71.96m-88.75,46.96c-1.8,0-3.61-.22-5.46-.69-.11-.03-.18-.13-.17-.24.01-.11.11-.2.22-.2.04,0,4.37-.06,11.58-3.27,6.65-2.96,17.2-9.3,29.61-22.63.08-.08.2-.09.3-.03.09.07.12.2.06.3-.18.29-16.36,26.76-36.14,26.76"/><path class="cls-1" d="m713.75,154.36c-7.48,0-13.2,5.73-13.2,13.27s5.73,13.28,13.2,13.28,13.25-5.74,13.25-13.28-5.68-13.27-13.25-13.27m0,24.27c-6.25,0-10.87-4.73-10.87-11s4.62-10.99,10.87-10.99,10.87,4.67,10.87,10.99-4.61,11-10.87,11"/><path class="cls-1" d="m510.77,75.82c7.74,4.13,18.32-1.19,22.38-12.11,4.18-10.3,1.3-21.06-6.03-24.25-7.54-3.48-16.93,1.55-21.51,10.98-4.71,9.96-2.68,21.43,5.16,25.38m-4.02-11.25s-.02,0-.03,0c-.08,0-.16-.04-.2-.12-.22-.42-.85-6.35,1.42-12.16,1.92-4.94,5.31-8.28,10.06-9.95,0,0,0,0,0,0,.09-.02.24.01.3.1.11.18.05.26-.58.94-5.65,6.14-9.28,13.21-10.79,21.02-.02.09-.09.17-.19.18"/><path class="cls-1" d="m597.54,72.94c-19.51-1.23-36,6.11-47.77,17.36-11.83,10.9-18.82,26.88-19.29,45.03-.53.48-1.06.96-1.6,1.44-3.07,2.71-6.2,5.1-9.33,7.17-3.18,2.13-5.94,3.3-8.33,3.56-1.38.16-1.96-.9-1.75-3.3.21-2.39.85-5.41,1.85-9.08,1.06-3.66,2.45-7.75,4.09-12.21,1.69-4.46,3.28-8.71,4.77-12.8,1.49-4.1,2.76-7.7,3.82-10.83,1.06-3.08,1.48-5.15,1.38-6.11-.26-2.39-1.53-4.41-3.82-6.05-2.23-1.65-4.82-2.97-7.79-3.99-2.98-1.01-5.95-1.64-8.86-2.02-2.97-.37-5.36-.42-7.16-.21-1.11.11-2.54,2.02-4.24,5.74-1.69,3.67-3.55,8.29-5.57,13.86-2.01,5.58-4.03,11.74-5.99,18.43-1.43,4.86-2.73,9.61-3.94,14.22-.92.97-1.94,2.02-3.07,3.14-2.91,2.92-6.19,5.73-9.91,8.45-3.77,2.71-7.8,5.15-12.14,7.33-4.35,2.12-8.69,3.45-13.04,3.98-6.69.79-11.24.05-13.58-2.29-2.33-2.39-3.23-5.57-2.65-9.62.58-3.95,2.32-8.35,5.13-13.22h0s.02-.02.02-.04c.06-.09.1-.18.16-.28.04-.08.09-.15.14-.22,1.36-2.3,2.93-4.64,4.62-6.93.07-.09.14-.19.21-.28.8-1.08,1.63-2.15,2.47-3.19.08-.1.17-.21.25-.31.87-1.07,1.75-2.11,2.64-3.11.04-.04.08-.09.11-.14.03-.03.05-.05.08-.08,6.1-6.88,12.26-12,14.79-11.83,3.53.24-2.21,6.94-5.6,10.08-1.98,2.02-2.47,2.85-2.62,4.37,0,.48.07.96.25,1.45.42,1.33,1.54,2.44,3.28,3.45,1.76,1.01,4.3,1.33,7.64.9,3.07-.37,5.94-1.22,8.53-2.6,2.6-1.38,4.83-3.13,6.74-5.3,1.85-2.13,3.24-4.63,4.09-7.44.9-2.76,1.11-5.74.79-8.81-.42-3.34-1.32-6.05-2.71-8.07-1.38-2.08-3.08-3.61-5.03-4.73-1.97-1.11-4.13-1.8-6.53-2.01-2.33-.22-4.66-.16-6.89.1-6.84.8-14.16,3.56-21.9,8.24-7.74,4.73-14.79,10.73-21.15,18-6.36,7.33-11.45,15.62-15.22,24.96-1.5,3.66-2.59,7.39-3.3,11.19-1.69,1.68-3.48,3.39-5.39,5.11-3.18,2.81-6.32,5.31-9.55,7.54-3.23,2.23-5.99,3.5-8.37,3.77-1.43.16-2.02-.91-1.75-3.24.22-2.29.85-5.31,1.96-8.98,1.17-3.72,2.5-7.81,4.09-12.27,1.59-4.46,3.18-8.71,4.66-12.74,1.49-4.04,2.76-7.64,3.82-10.83,1.06-3.19,1.48-5.26,1.38-6.26-.21-1.71-1.27-3.35-3.12-4.94-1.9-1.65-4.03-3.08-6.42-4.41-2.33-1.28-4.61-2.34-6.74-3.13-2.17-.8-3.6-1.17-4.29-1.06-1.12.11-2.86,1.7-5.2,4.78-2.33,3.02-5.03,6.95-8.16,11.74-.85-3.45-2.65-6.64-5.45-9.51-2.87-2.82-7-3.93-12.46-3.29-4.19.53-8.75,1.91-13.63,4.19-4.93,2.29-9.86,5.37-14.79,9.24-4.94,3.87-9.65,8.39-14.21,13.65-4.56,5.2-8.49,11.05-11.77,17.47-.49.98-.96,1.98-1.41,2.98-3.82,5.25-8.69,11.01-14.45,16.62,2.42-7.32,4.12-14.65,4.84-21.46.8-7.38.32-14.76-2.39-21.88-2.91-7.64-14.58-10.51-22.79-9.98-4.19.27-7.9,1.8-11.45,3.93-5.63,3.35-10.19,7.86-14.43,12.75-6.09,6.95-16.01,22.46-16.28,22.19-.22-.53,4.3-11.21,5.19-14.02,1.76-5.15,1.16-6.74-3.02-9.82-6.84-4.99-16.07-6.11-19.83-5.9-2.38.11-4.4,1.76-5.46,4.14-6.4,14.91-13.38,33.08-20.01,51.22-2.19,5.17-5.63,11.77-12.06,18.13-2.29,2.26-4.92,3.39-7.59,3.84-.18-1.16-.4-2.33-.68-3.51-2.17-9.29-4.98-18.37-8.48-27.24-2.12-5.37-6.25-16.88-6.89-22.74-.8-6.84,1.53-9.71,8.27-10.72.32-.05.63-.16,1.32-.37,3.13-3.29,2.28-6.75.63-10.1-3.76-7.54-13.3-12.48-21.79-11.15-8.7,1.38-15.37,6.22-20.63,13.06-4.77,6.27-6.26,13.49-5.3,21.41.1.44.21.88.32,1.33-5.8,8.23-11.65,16.24-17.55,24.04-6.42,8.55-12.72,16.2-18.93,22.84-6.15,6.69-12.09,12.21-17.66,16.57-5.62,4.3-10.71,6.81-15.27,7.49-3.34.48-5.67.27-7-.63-1.27-.9-2.23-1.97-2.76-3.25-.58-1.27-1.01-2.44-1.27-3.5-.27-1.06-1.06-1.49-2.39-1.33-1.43.21-2.07,1.28-2.01,3.08.05,1.85.63,4.09,1.7,6.75,1.06,2.66,2.65,5.42,4.67,8.33,2.01,2.87,4.29,5.58,6.79,8.02,2.49,2.44,5.2,4.35,8.01,5.79,2.86,1.43,5.67,1.91,8.43,1.54,5.14-.8,10.76-3.4,16.86-7.86,6.04-4.46,12.35-10.19,18.93-17.26,6.57-7.06,13.26-15.03,20.15-24.01,3.51-4.55,7.02-9.21,10.5-13.97,1.85,4.67,3.38,8.44,4.13,10.47,1.22,3.25,2.33,6.43,2.81,9.83.63,4.88-2.39,10.36-7.32,10.57-2.13.11-9.38-3.4-11.24-4.41-1.91-1.01-8,2.65-3.76,11.79,3.55,7.59,10.55,12.32,18.61,14.7,4.27,1.26,8.26,1.78,12.03,1.55.04,0,.07,0,.11,0,.26-.01.53-.04.79-.06.13-.01.27-.01.4-.03,9.48-.76,19.04-4.83,29.09-13.56-6.02,17.64-10.56,31.57-12.25,37.03-2.97,9.66-5.3,19.44-5.99,29.52-.9,13.6,6.57,25.49,19.09,30.75,1.69.69,3.44,1.54,5.73.85,10.87-38.66,19.93-64.74,39.55-107.76.74,1.17,1.22,2.02,1.8,2.92,2.75,4.51,8.43,7.11,15.34,7.51,1.23.08,2.55.1,3.95.03,14.61-.81,35.24-6.18,61.89-37.63.09,1.64.22,3.29.42,4.97.37,2.92,1.32,5.78,2.86,8.6,1.53,2.82,3.5,5.26,5.88,7.38,2.39,2.12,5.04,3.82,8.06,4.99,2.97,1.22,6.04,1.64,9.27,1.27,2.22-.27,4.61-1.43,7.16-3.45,2.54-2.02,5.04-4.57,7.48-7.7,2.49-3.14,4.98-6.64,7.47-10.52,2.55-3.82,4.89-7.8,7.11-11.89,5.24-9.45,11.92-22.46,10.6-17.95-1.06,3.88-2.07,7.86-2.92,12.01-.85,4.14-1.11,7.43-.85,9.77,1.01,8.55,3.45,14.65,7.21,18.38,3.77,3.66,7.9,5.2,12.35,4.67,2.81-.31,6.1-1.7,9.86-4.14,3.71-2.45,7.58-5.43,11.56-9.03,3.97-3.56,8.01-7.48,12.14-11.74,2.96-3.09,5.79-6.09,8.45-9.05.57,2.31,1.32,4.59,2.3,6.82,1.65,3.67,3.93,6.96,6.84,9.83,2.86,2.87,6.47,4.99,10.66,6.48,4.24,1.49,9.07,1.91,14.53,1.28,5.04-.58,9.97-2.39,14.79-5.42,4.83-2.97,9.75-6.95,14.74-12,4.26-4.22,8.64-9.03,13.2-14.43-.01.64,0,1.21.06,1.69.42,3.51,1.32,6.69,2.65,9.56,1.33,2.87,2.97,5.31,4.93,7.38,1.96,2.02,4.08,3.5,6.36,4.51,2.33,1.02,4.61,1.38,6.83,1.07,2.55-.26,5.52-1.49,8.96-3.61,3.45-2.07,7-4.78,10.76-8.07,3.71-3.24,7.58-6.9,11.56-10.89,3.13-3.18,6.16-6.36,9.07-9.59,9.16,25.74,40.91,33.68,66.27,13.89,19.83-15.45,29.37-38.98,30.59-56.66,1.12-15.62-6.74-38.4-32.5-39.99M111.61,117.38c-18.26,9.59-20.85,25.06-20.88,25.22-.02.11-.11.19-.22.19s-.21-.08-.22-.19c-.93-6.35.69-11.95,4.82-16.66,5.5-6.26,13.98-8.98,16.36-8.98.14,0,.23.06.26.17.02.1-.02.2-.11.25m25.69,145.31c-2.19,7.77-6.97,29.63-7.01,29.85-.02.1-.11.18-.21.18h0c-.1,0-.19-.07-.22-.17-.02-.08-1.77-7.78,2.33-23.64,8.69-33.55,17.72-53.47,21.28-59.32.06-.1.18-.13.29-.09.1.05.16.16.12.27-.13.4-12.98,40.23-16.57,52.93m55.76-136.04h0c-.15,0-6.92.05-9.82,4.85-4.47,7.43-7.31,13.42-10.07,19.21-1.62,3.41-3.16,6.64-4.98,10.1l-.2.37c-.58,1.1-.76,1.42-.96,1.42-.04,0-.07-.01-.11-.03-.25-.1-.35-.15.9-3.88,1.99-6.05,10.3-27.92,14.15-32.21,3.31-3.69,10.86-.41,11.18-.27.1.04.15.15.13.25-.02.1-.11.18-.22.18m47.34,27.39c-3.55,16.78-17.55,48.28-44.69,42.28.32-.59,1.32-2.45,1.64-3.08,9.54-17,19.51-33.73,31.39-49.23,2.49-3.24,7.79-8.81,10.5-7.96,2.01.58,4.14,4.09,1.17,18m42.73,2.53c-.03.09-.12.14-.21.14-.02,0-.04,0-.06-.01-.11-.03-.18-.14-.16-.25.77-4.63,1.96-8.74,3.62-12.54,1.63-3.78,3.56-7.22,5.91-10.5,2.15-3.07,4.64-5.98,7.39-8.64,3.05-2.82,5.57-4.98,7.92-6.81,6.27-4.54,13.16-8.32,20.47-11.24.11-.04.23,0,.28.11.05.1.01.23-.09.29-23.39,14.25-36.45,28.57-45.09,49.45m50.17-13.58c-4.03,6.53-7.85,12.53-11.61,17.95-3.71,5.42-7.05,9.87-10.02,13.44-2.97,3.5-5.35,5.36-7.16,5.57-2.76.32-4.35-.74-4.83-3.29-.48-2.49-.1-5.73,1.06-9.71,1.16-3.98,3.18-8.34,5.99-13.07,2.81-4.72,6.15-9.24,10.02-13.54,3.87-4.3,8.11-7.96,12.78-11.09,4.66-3.14,9.6-5.05,14.85-5.68.32,0,.58.05.74.15-3.87,6.32-7.79,12.69-11.82,19.28m67.91,4.81c-.03.09-.12.14-.21.14-.02,0-.04,0-.06,0-.11-.03-.18-.15-.16-.26,1.07-5.3,2.54-10.2,4.36-14.54,1.89-4.62,3.91-8.49,6.17-11.83,2.4-3.68,4.78-6.77,7.29-9.43,2.41-2.67,5.02-5.11,7.76-7.24,5.88-4.79,12.39-8.61,19.36-11.34.1-.04.23,0,.28.11.05.1.02.23-.08.29-20.93,13.16-35.55,30.86-44.71,54.11m96.79-58.07c-1.6,8.85-5.62,20.03-10.75,29.89-.04.08-.12.12-.2.12-.02,0-.04,0-.06,0-.1-.03-.17-.13-.16-.24.33-3.49,4.53-20.73,11.37-33.44.05-.1.17-.14.27-.1.1.03.17.14.15.25-.2,1.2-.4,2.37-.61,3.52m107.94,33.22s.06-.06.08-.09c-.11.42-.25.85-.38,1.27-.08.28-.16.55-.24.83-.22.72-.47,1.43-.74,2.15-2.61,7.38-7.15,14.99-13.88,20.45-14.42,11.71-31.8,3.71-32.54-15.18-.16-4.07.19-7.96.96-11.62,4.14,1.95,11.95,4.65,23.63,4.71,12.37.07,20.19-3.95,23.98-6.57-.23,1.31-.52,2.67-.88,4.04m4.63-38.95c-.26-.05-25.71-5.36-51.05,10.12-.04.02-.08.03-.12.03-.07,0-.13-.03-.17-.08-.07-.09-.07-.21,0-.29.05-.06,5.44-6.17,14.43-10.44,8.3-3.95,21.47-7.12,37.06.24.1.05.15.17.11.27s-.16.16-.26.15"/></svg>